<?xml version="1.0"?>
<svg xmlns="http://www.w3.org/2000/svg" xmlns:xlink="http://www.w3.org/1999/xlink" version="1.1" id="Layer_1" x="0px" y="0px" viewBox="0 0 512 512" style="enable-background:new 0 0 512 512;" xml:space="preserve" width="512px" height="512px" class=""><g><g>
	<g>
		<path d="M493.268,74.768H185.584V43.139c0-10.345-8.387-18.732-18.732-18.732H18.732C8.387,24.407,0,32.794,0,43.139    c0,4.158,0,421.948,0,425.722c0,10.345,8.387,18.732,18.732,18.732h474.537c10.345,0,18.732-8.387,18.732-18.732    c0-8.077,0-365.597,0-375.361C512,83.155,503.613,74.768,493.268,74.768z M474.537,450.129H37.463V311.858h437.073V450.129z     M96.838,274.391v-91.22h318.324v91.22H96.838z M474.537,274.391h-21.911V164.439c0-10.345-8.387-18.732-18.732-18.732H78.106    c-10.345,0-18.732,8.387-18.732,18.732v109.951H37.463V61.871H148.12V93.5c0,10.345,8.387,18.732,18.732,18.732h307.685V274.391z" data-original="#000000" class="active-path" data-old_color="#000000" fill="#FFFFFF"/>
	</g>
</g><g>
	<g>
		<path d="M144.28,375.731H93.13c-10.345,0-18.732,8.387-18.732,18.732s8.387,18.732,18.732,18.732h51.15    c10.345,0,18.732-8.387,18.732-18.732S154.625,375.731,144.28,375.731z" data-original="#000000" class="active-path" data-old_color="#000000" fill="#FFFFFF"/>
	</g>
</g><g>
	<g>
		<path d="M319.745,210.049h-127.49c-10.345,0-18.732,8.387-18.732,18.732s8.387,18.732,18.732,18.732h127.49    c10.345,0,18.732-8.387,18.732-18.732S330.09,210.049,319.745,210.049z" data-original="#000000" class="active-path" data-old_color="#000000" fill="#FFFFFF"/>
	</g>
</g></g> </svg>
