<?xml version="1.0"?>
<svg xmlns="http://www.w3.org/2000/svg" xmlns:xlink="http://www.w3.org/1999/xlink" version="1.1" id="Layer_1" x="0px" y="0px" viewBox="0 0 496 496" style="enable-background:new 0 0 496 496;" xml:space="preserve" width="512px" height="512px" class=""><g><g>
	<g>
		<g>
			<path d="M196,180c-11.024,0-20,8.976-20,20s8.976,20,20,20s20-8.976,20-20S207.024,180,196,180z M196,204c-2.208,0-4-1.792-4-4     s1.792-4,4-4s4,1.792,4,4S198.208,204,196,204z" data-original="#000000" class="active-path" data-old_color="#000000" fill="#FFFFFF"/>
			<path d="M300,180c-11.024,0-20,8.976-20,20s8.976,20,20,20s20-8.976,20-20S311.024,180,300,180z M300,204c-2.208,0-4-1.792-4-4     s1.792-4,4-4s4,1.792,4,4S302.208,204,300,204z" data-original="#000000" class="active-path" data-old_color="#000000" fill="#FFFFFF"/>
			<path d="M71.496,411.608L45.12,496h405.76l-26.376-84.392c-7.208-23.072-22.68-42.584-43.16-54.984l18.08-15.064l-12.456-4.984     c-1.008-0.408-1.944-0.856-2.928-1.288c2.6,0.432,5.248,0.712,7.96,0.712c26.472,0,48-21.528,48-48c0-7.128-1.6-13.872-4.4-19.96     c1.432-3.08,2.512-6.24,3.224-9.448c0.784-3.544,1.056-7.08,1.056-10.592H440c0-2.288-0.216-4.52-0.528-6.728     c-0.056-0.368-0.104-0.736-0.168-1.104c-0.456-2.768-1.144-5.456-2.056-8.04c0-0.008-0.008-0.016-0.008-0.032     c-1.008-2.856-2.272-5.592-3.776-8.176C437.752,216.608,440,208.44,440,200c0-23.744-17.328-43.512-40-47.336V152     C400,68.184,331.816,0,248,0S96,68.184,96,152v0.664C73.328,156.488,56,176.256,56,200c0,8.44,2.248,16.608,6.536,23.928     c-1.504,2.584-2.768,5.32-3.776,8.176c0,0.008-0.008,0.016-0.008,0.016c-0.912,2.592-1.6,5.272-2.056,8.048     c-0.064,0.368-0.112,0.736-0.168,1.104C56.216,243.48,56,245.712,56,248h0.12c0,3.512,0.272,7.04,1.056,10.592     c0.712,3.216,1.792,6.376,3.224,9.448C57.6,274.128,56,280.872,56,288c0,26.472,21.528,48,48,48c2.712,0,5.36-0.28,7.952-0.712     c-0.984,0.424-1.912,0.88-2.928,1.288l-12.456,4.984l18.112,15.096C94.192,369.032,78.72,388.48,71.496,411.608z M145.056,480     l5.888-47.088L221.576,480H145.056z M240,473.048l-98.152-65.432l31.048-23.288l-46.064-38.376     c16.264-8.576,27.888-19.352,35.68-28.376c3.192,10.288,10.488,25.192,27.024,40.472C181.36,363.92,176,373.448,176,384     c0,12.128,6.864,22.576,16.832,28H192c0,19.848,15.336,36,34.184,36c4.864,0,9.52-1.192,13.816-3.208V473.048z M136.336,238.632     C126.872,235.416,120,226.536,120,216c0-10.416,6.712-19.216,16-22.528V232C136,234.24,136.208,236.424,136.336,238.632z      M344,232c0,52.936-43.064,96-96,96c-52.936,0-96-43.064-96-96v-75.304c0-10.712,4.8-20.688,13.16-27.384     c6.36-5.088,14.128-7.672,21.912-7.672c6.432,0,12.88,1.76,18.576,5.32l42.648,26.656L277,133.112     c15.672-11.192,36.952-10.4,51.752,1.936C338.448,143.12,344,154.984,344,167.592V232z M344.072,289.288     c0.232,8.616,2.736,16.656,6.944,23.568c-5.88-5.856-9.992-11.28-12.56-15.08C340.456,295.032,342.32,292.208,344.072,289.288z      M314.576,321.856c-7.376,14.816-24.84,36.16-66.576,53.504c-41.872-17.4-59.312-38.744-66.64-53.552     C200.008,335.68,223.024,344,248,344C272.952,344,295.936,335.704,314.576,321.856z M157.568,297.8     c-2.576,3.832-6.728,9.312-12.68,15.216c4.272-6.952,6.816-15.048,7.048-23.728C153.688,292.216,155.56,295.056,157.568,297.8z      M241.2,423.232c-3.4,5.488-9.024,8.768-15.016,8.768c-8.792,0-16.136-6.896-17.816-16.024c5.28-0.056,10.344-1.376,14.856-3.848     c4.552,5.6,10.904,9.528,17.984,11.096L241.2,423.232z M233.056,397.504l-4.512-12.232l-8.864,9.552     C216.592,398.168,212.44,400,208,400c-8.824,0-16-7.176-16-16c0-6.896,4.512-12.976,10.856-15.144     c11,7.896,24.784,15.624,42.168,22.576l2.976,1.184l2.976-1.184c17.384-6.952,31.168-14.68,42.168-22.576     C299.488,371.024,304,377.104,304,384c0,8.824-7.176,16-16,16c-4.44,0-8.592-1.832-11.68-5.176l-8.864-9.552l-4.512,12.232     C260.632,403.784,254.624,408,248,408C241.376,408,235.368,403.784,233.056,397.504z M254.792,423.216     c7.072-1.568,13.432-5.488,17.984-11.096c4.512,2.472,9.576,3.792,14.856,3.856c-1.68,9.128-9.024,16.024-17.816,16.024     c-5.992,0-11.616-3.28-15.016-8.776L254.792,423.216z M274.416,480l70.64-47.088l5.88,47.088H274.416z M256,473.056V444.8     c4.296,2.008,8.952,3.2,13.816,3.2C288.664,448,304,431.848,304,412h-0.832c9.968-5.424,16.832-15.872,16.832-28     c0-10.552-5.36-20.08-13.544-25.952c16.544-15.28,23.832-30.184,27.024-40.472c7.792,9.016,19.424,19.792,35.68,28.376     l-46.056,38.384l31.048,23.288L256,473.056z M409.232,416.376L429.12,480h-62.056l-7.128-56.992l-0.032,0.008l21.944-14.632     l-32.952-24.712l19.24-16.032C387.72,377.736,402.632,395.248,409.232,416.376z M104,320c-17.648,0-32-14.352-32-32     c0-1.832,0.24-3.6,0.544-5.344c0.136-0.736,0.264-1.48,0.456-2.208c0.16-0.664,0.4-1.296,0.6-1.936     c0.712-2.16,1.6-4.288,2.8-6.368l1.376-2.384C83.56,261.464,93.144,256,104,256v-16c-12.088,0-23.12,4.528-31.568,11.928     c-0.992-8.224,1.008-16.328,6.128-23.104l0.208-0.28C84.632,220.968,93.704,216,104,216v-16c-11.376,0-21.832,4-30.064,10.64     C72.688,207.224,72,203.648,72,200c0-17.648,14.352-32,32-32h8v-16c0-74.992,61.008-136,136-136s136,61.008,136,136v16h8     c17.648,0,32,14.352,32,32c0,3.648-0.688,7.224-1.936,10.64C413.832,204,403.376,200,392,200v16     c10.296,0,19.368,4.968,25.232,12.544l0.208,0.28c5.12,6.776,7.12,14.88,6.128,23.104C415.12,244.528,404.088,240,392,240v16     c10.856,0,20.44,5.464,26.224,13.752l1.376,2.384c1.2,2.08,2.088,4.216,2.8,6.368c0.2,0.648,0.44,1.28,0.6,1.936     c0.192,0.736,0.32,1.472,0.456,2.208C423.76,284.4,424,286.168,424,288c0,17.648-14.352,32-32,32s-32-14.352-32-32     c0-5.472,1.48-10.808,4.408-15.872l2.32-4.024l-2.344-4.008c-1.672-2.864-2.824-5.96-3.544-9.152     C378.64,250.896,392,235.008,392,216c0-19.312-13.768-35.472-32-39.192v-9.216c0-17.376-7.656-33.72-21-44.84     c-20.376-16.992-49.696-18.088-71.288-2.664l-20,14.288l-33.576-20.984c-18.36-11.48-42.064-10.096-58.96,3.432     C142.984,126.568,136,141.104,136,156.696v20.112c-18.232,3.72-32,19.872-32,39.192c0,19.008,13.36,34.896,31.16,38.944     c-0.72,3.192-1.872,6.288-3.544,9.152l-2.344,4.008l2.32,4.024C134.52,277.192,136,282.528,136,288     C136,305.648,121.648,320,104,320z M359.664,238.632C359.792,236.424,360,234.24,360,232v-38.528     c9.288,3.312,16,12.112,16,22.528C376,226.536,369.128,235.416,359.664,238.632z M127.864,367.632l19.24,16.032l-32.952,24.712     l21.944,14.632L136.064,423l-7.128,57H66.88l19.88-63.624C93.384,395.2,108.272,377.736,127.864,367.632z" data-original="#000000" class="active-path" data-old_color="#000000" fill="#FFFFFF"/>
			<rect x="224" y="264" width="48" height="16" data-original="#000000" class="active-path" data-old_color="#000000" fill="#FFFFFF"/>
			<path d="M248,48V32c-24.216,0-47.544,7.176-67.48,20.76l9.008,13.224C206.792,54.216,227.016,48,248,48z" data-original="#000000" class="active-path" data-old_color="#000000" fill="#FFFFFF"/>
			<path d="M178.504,74.632L167.816,62.72c-4.168,3.744-8.12,7.832-11.736,12.136l12.248,10.288     C171.472,81.416,174.888,77.872,178.504,74.632z" data-original="#000000" class="active-path" data-old_color="#000000" fill="#FFFFFF"/>
		</g>
	</g>
</g></g> </svg>
